<?xml version="1.0" encoding="UTF-8" standalone="no"?>
<svg
   data-v-6805eed4=""
   version="1.0"
   width="310"
   height="113"
   viewBox="0 0 310 113"
   preserveAspectRatio="xMidYMid"
   color-interpolation-filters="sRGB"
   id="svg13"
   sodipodi:docname="flat_find.svg"
   inkscape:export-filename="../flat_find/assets/flat_find.png"
   inkscape:export-xdpi="96"
   inkscape:export-ydpi="96"
   xmlns:inkscape="http://www.inkscape.org/namespaces/inkscape"
   xmlns:sodipodi="http://sodipodi.sourceforge.net/DTD/sodipodi-0.dtd"
   xmlns="http://www.w3.org/2000/svg"
   xmlns:svg="http://www.w3.org/2000/svg">
  <sodipodi:namedview
     id="namedview13"
     pagecolor="#ffffff"
     bordercolor="#000000"
     borderopacity="0.25"
     inkscape:showpageshadow="2"
     inkscape:pageopacity="0.0"
     inkscape:pagecheckerboard="0"
     inkscape:deskcolor="#d1d1d1"
     showgrid="false" />
  <g
     id="g13"
     transform="matrix(1.1432144,0,0,1.1432144,-39.137294,-86.064946)">
    <g
       fill-rule="evenodd"
       id="g6"
       style="overflow:visible"
       transform="matrix(0.64377425,0,0,0.64377425,34.970114,76.002886)">
      <path
         d="m 4.2,63.21 59,-59 a 14.34,14.34 0 0 1 20.28,0 14.34,14.34 0 0 1 0,20.28 l -59,59 a 14.34,14.34 0 0 1 -20.28,0 14.34,14.34 0 0 1 0,-20.28 z"
         fill="#26d3e1"
         id="path3" />
      <path
         d="M 30,89 68.74,50.3 a 14.34,14.34 0 0 1 20.26,0 14.34,14.34 0 0 1 0,20.28 L 50.3,109.3 a 14.34,14.34 0 0 1 -20.28,0 A 14.32,14.32 0 0 1 30,89 Z"
         fill="#3d85c6"
         opacity="0.8"
         id="path4" />
      <path
         d="M 50.3,89 89,127.74 A 14.34,14.34 0 0 1 89,148 14.32,14.32 0 0 1 68.72,148 L 30,109.3 A 14.32,14.32 0 0 1 30,89 14.34,14.34 0 0 1 50.3,89 Z"
         fill="#3d85c6"
         opacity="0.8"
         id="path5" />
      <path
         d="m 30,89 a 14.34,14.34 0 0 1 20.3,0 L 60.44,99.16 50.3,109.3 A 14.34,14.34 0 0 1 29.62,89.44 Z"
         fill="#3d85c6"
         opacity="0.8"
         id="path6" />
    </g>
    <g
       id="g9"
       transform="translate(101.97,104.515)">
      <path
         d="M 7.81,0.28 Q 6.76,0.28 6.05,-0.44 5.33,-1.16 5.33,-2.2 v 0 -33.66 q 0,-1.05 0.72,-1.79 0.71,-0.74 1.76,-0.74 v 0 h 21.4 q 0.99,0 1.67,0.69 0.69,0.68 0.69,1.68 v 0 q 0,0.98 -0.69,1.64 -0.68,0.66 -1.67,0.66 v 0 H 10.34 v 12.16 h 16.94 q 0.99,0 1.68,0.69 0.68,0.69 0.68,1.67 v 0 q 0,0.99 -0.68,1.65 -0.69,0.66 -1.68,0.66 v 0 H 10.34 V -2.2 q 0,1.04 -0.74,1.76 -0.74,0.72 -1.79,0.72 z m 32.07,0 q -1.05,0 -1.76,-0.72 Q 37.4,-1.16 37.4,-2.2 v 0 -35.7 q 0,-1.04 0.72,-1.78 0.71,-0.74 1.76,-0.74 v 0 q 1.1,0 1.81,0.71 0.72,0.72 0.72,1.81 v 0 35.7 q 0,1.04 -0.75,1.76 -0.74,0.72 -1.78,0.72 z m 18.36,0.27 q -2.41,0 -4.48,-0.99 -2.06,-0.99 -3.27,-2.89 -1.21,-1.89 -1.21,-4.37 v 0 q 0,-4.07 3.22,-6.49 3.22,-2.42 9.43,-2.42 v 0 h 6.66 v -0.44 q 0,-3.63 -1.79,-5.22 -1.79,-1.6 -5.58,-1.6 v 0 q -2.09,0 -3.72,0.33 -1.62,0.33 -3.6,0.99 v 0 q -0.44,0.11 -0.71,0.11 v 0 q -0.83,0 -1.43,-0.61 -0.61,-0.6 -0.61,-1.48 v 0 q 0,-1.49 1.43,-2.09 v 0 q 4.68,-1.98 9.51,-1.98 v 0 q 3.8,0 6.41,1.54 2.61,1.54 3.85,3.99 1.24,2.44 1.24,5.3 v 0 15.57 q 0,1.04 -0.74,1.76 -0.74,0.72 -1.79,0.72 v 0 q -1.04,0 -1.76,-0.72 -0.71,-0.72 -0.71,-1.76 v 0 -1.43 Q 64.52,0.55 58.24,0.55 Z m 1.88,-4.4 q 2.41,0 4.67,-1.18 2.26,-1.18 3.8,-2.94 v 0 -4.63 h -6 q -8.31,0 -8.31,4.35 v 0 q 0,1.98 1.35,3.19 1.35,1.21 4.49,1.21 z m 30.91,4.4 Q 83,0.55 83,-6.71 v 0 -17.05 h -3.91 q -0.44,0 -0.74,-0.3 -0.3,-0.3 -0.3,-0.74 v 0 q 0,-0.56 0.49,-0.94 v 0 l 7.48,-7.31 q 0.5,-0.5 0.93,-0.5 v 0 q 0.44,0 0.75,0.33 0.3,0.33 0.3,0.77 v 0 4.4 h 6.22 q 0.93,0 1.53,0.6 0.61,0.61 0.61,1.54 v 0 q 0,0.89 -0.61,1.52 -0.6,0.63 -1.53,0.63 v 0 H 88 v 16.61 q 0,2.15 1.02,2.72 1.01,0.58 2.56,0.58 v 0 q 1.09,0 2.2,-0.33 v 0 q 0.22,-0.06 0.46,-0.11 0.25,-0.05 0.64,-0.05 v 0 q 0.76,0 1.37,0.57 0.61,0.58 0.61,1.4 v 0 q 0,1.27 -1.27,1.93 v 0 q -2.15,0.99 -4.56,0.99 z m 14.79,-0.27 q -1.04,0 -1.76,-0.72 -0.72,-0.72 -0.72,-1.76 v 0 -33.66 q 0,-1.05 0.72,-1.79 0.72,-0.74 1.76,-0.74 v 0 h 21.4 q 0.99,0 1.67,0.69 0.69,0.68 0.69,1.68 v 0 q 0,0.98 -0.69,1.64 -0.68,0.66 -1.67,0.66 v 0 h -18.87 v 12.16 h 16.94 q 0.99,0 1.68,0.69 0.69,0.69 0.69,1.67 v 0 q 0,0.99 -0.69,1.65 -0.69,0.66 -1.68,0.66 v 0 H 108.35 V -2.2 q 0,1.04 -0.74,1.76 -0.74,0.72 -1.79,0.72 z m 31.74,-34.05 q -1.16,0 -1.99,-0.82 -0.82,-0.83 -0.82,-1.99 v 0 -0.22 q 0,-1.15 0.82,-1.97 0.83,-0.83 1.99,-0.83 v 0 h 0.32 q 1.16,0 1.99,0.83 0.82,0.82 0.82,1.97 v 0 0.22 q 0,1.16 -0.82,1.99 -0.83,0.82 -1.99,0.82 v 0 z m 0.1,34.05 q -1.04,0 -1.75,-0.72 -0.72,-0.72 -0.72,-1.76 v 0 -23.6 q 0,-1.04 0.72,-1.78 0.71,-0.74 1.75,-0.74 v 0 q 1.1,0 1.82,0.71 0.71,0.72 0.71,1.81 v 0 23.6 q 0,1.04 -0.74,1.76 -0.74,0.72 -1.79,0.72 z m 13.7,0 q -1.05,0 -1.76,-0.72 -0.72,-0.72 -0.72,-1.76 v 0 -23.6 q 0,-1.04 0.72,-1.78 0.71,-0.74 1.76,-0.74 v 0 q 1.05,0 1.79,0.74 0.74,0.74 0.74,1.78 v 0 2.26 q 2.09,-2.31 4.51,-3.69 2.42,-1.37 5.72,-1.37 v 0 q 3.02,0 5.25,1.43 2.23,1.43 3.41,3.9 1.19,2.48 1.19,5.45 v 0 15.62 q 0,1.04 -0.75,1.76 -0.74,0.72 -1.78,0.72 v 0 q -1.05,0 -1.77,-0.72 -0.71,-0.72 -0.71,-1.76 v 0 -15.07 q 0,-6.71 -6.05,-6.71 v 0 q -2.75,0 -4.92,1.43 -2.18,1.43 -4.1,3.85 v 0 16.5 q 0,1.04 -0.74,1.76 -0.74,0.72 -1.79,0.72 z m 42.62,0.27 q -3.41,0 -6.46,-1.73 -3.05,-1.74 -4.95,-5.06 -1.9,-3.33 -1.9,-7.79 v 0 q 0,-4.45 1.9,-7.78 1.9,-3.33 4.95,-5.06 3.05,-1.73 6.46,-1.73 v 0 q 5.4,0 9.41,4.18 v 0 -13.48 q 0,-1.09 0.74,-1.81 0.75,-0.71 1.79,-0.71 v 0 q 1.05,0 1.76,0.74 0.71,0.74 0.71,1.78 v 0 35.7 q 0,1.04 -0.71,1.76 -0.71,0.72 -1.76,0.72 v 0 q -1.04,0 -1.79,-0.72 -0.74,-0.72 -0.74,-1.76 v 0 -1.43 q -4.01,4.18 -9.41,4.18 z m 0.72,-4.68 q 2.53,0 4.76,-1.12 2.23,-1.13 3.93,-3 v 0 -11.55 q -1.7,-1.87 -3.93,-3 -2.23,-1.13 -4.76,-1.13 v 0 q -4.07,0 -6.54,2.59 -2.48,2.59 -2.48,7.31 v 0 q 0,4.74 2.48,7.32 2.47,2.58 6.54,2.58 z"
         transform="translate(-5.3299999,40.419998)"
         id="path8" />
    </g>
  </g>
  <defs
     v-gra="od"
     id="defs13" />
</svg>
